<?xml version="1.0" encoding="UTF-8" standalone="no"?><!DOCTYPE svg PUBLIC "-//W3C//DTD SVG 1.1//EN" "http://www.w3.org/Graphics/SVG/1.1/DTD/svg11.dtd"><svg width="100%" height="100%" viewBox="0 0 1000 440" version="1.1" xmlns="http://www.w3.org/2000/svg" xmlns:xlink="http://www.w3.org/1999/xlink" xml:space="preserve" xmlns:serif="http://www.serif.com/" style="fill-rule:evenodd;clip-rule:evenodd;stroke-linejoin:round;stroke-miterlimit:2;"><g><path d="M99,203.8l-51.4,0l-9.8,29.2l-31.2,0l53,-142.2l27.2,0l53.2,142.2l-31.2,0l-9.8,-29.2Zm-43.4,-23.8l35.4,0l-17.8,-53.2l-17.6,53.2Z" style="fill:#3dbeef;fill-rule:nonzero;"/><path d="M204.17,139.8l26.6,-49l33.8,0l-41.4,70.6l42.4,71.6l-34,0l-27.4,-49.8l-27.4,49.8l-34,0l42.4,-71.6l-41.4,-70.6l33.8,0l26.6,49Z" style="fill:#3dbeef;fill-rule:nonzero;"/><path d="M365.821,171.4l-56.2,0l0,38l66,0l0,23.6l-95.4,0l0,-142.2l95.2,0l0,23.8l-65.8,0l0,33.8l56.2,0l0,23Z" style="fill:#3dbeef;fill-rule:nonzero;"/><path d="M422.121,209.4l62.2,0l0,23.6l-91.6,0l0,-142.2l29.4,0l0,118.6Z" style="fill:#3dbeef;fill-rule:nonzero;"/></g><g><path d="M430.722,327.792l-19.467,0l0,-40.667l-38.133,0l0,40.667l-19.6,0l0,-94.8l19.6,0l0,38.4l38.133,0l0,-38.4l19.467,0l0,94.8Z" style="fill:#35444a;fill-rule:nonzero;"/><path d="M502.5,308.325l-34.267,0l-6.533,19.467l-20.8,0l35.333,-94.8l18.134,0l35.466,94.8l-20.8,0l-6.533,-19.467Zm-28.933,-15.867l23.6,0l-11.867,-35.466l-11.733,35.466Z" style="fill:#35444a;fill-rule:nonzero;"/><path d="M558.213,312.058l41.466,0l0,15.734l-61.066,0l0,-94.8l19.6,0l0,79.066Z" style="fill:#35444a;fill-rule:nonzero;"/><rect x="612.147" y="232.992" width="19.467" height="94.8" style="fill:#35444a;"/><path d="M726.881,327.792l-19.6,0l-38,-62.4l0,62.4l-19.6,0l0,-94.8l19.6,0l38.133,62.533l0,-62.533l19.467,0l0,94.8Z" style="fill:#35444a;fill-rule:nonzero;"/><path d="M813.399,248.859l-29.066,0l0,78.933l-19.6,0l0,-78.933l-28.533,0l0,-15.867l77.199,0l0,15.867Z" style="fill:#35444a;fill-rule:nonzero;"/><path d="M870.208,308.325l-34.267,0l-6.533,19.467l-20.8,0l35.333,-94.8l18.134,0l35.466,94.8l-20.8,0l-6.533,-19.467Zm-28.933,-15.867l23.6,0l-11.867,-35.466l-11.733,35.466Z" style="fill:#35444a;fill-rule:nonzero;"/><path d="M941.521,293.125l-15.6,0l0,34.667l-19.6,0l0,-94.8l35.333,0c11.2,0 19.734,2.533 25.867,7.467c6.133,5.066 9.066,12.133 9.066,21.2c0,6.4 -1.333,11.866 -4.133,16.133c-2.8,4.4 -7.067,7.733 -12.8,10.4l20.533,38.666l0,0.934l-20.933,0l-17.733,-34.667Zm-15.6,-15.867l15.733,0c4.934,0 8.667,-1.2 11.467,-3.733c2.667,-2.533 4,-5.866 4,-10.266c0,-4.534 -1.333,-8 -3.867,-10.534c-2.533,-2.666 -6.4,-3.866 -11.6,-3.866l-15.733,0l0,28.399Z" style="fill:#35444a;fill-rule:nonzero;"/></g></svg>